<svg width="512" height="512" viewBox="0 0 512 512" fill="none" xmlns="http://www.w3.org/2000/svg">
<g clip-path="url(#clip0)">
<path d="M81 274.71C90.36 363 165.26 432 256 432C280.634 432.027 304.996 426.851 327.49 416.81C287.19 400.28 243.44 378.64 199.72 353.45C157 328.86 115.84 301.5 81 274.71Z" fill="#5600AC"/>
<path d="M492.72 339.51C484.22 328.2 472.72 315.71 458.72 302.51C456.049 314.142 452.368 325.518 447.72 336.51C476.44 366.01 480.92 381.85 479.89 384.96C477.89 387.19 462.84 391.85 421.74 381.43C415.853 379.937 409.413 378.117 402.42 375.97C397.913 374.583 393.317 373.087 388.63 371.48C395.992 363.036 402.535 353.912 408.17 344.23C408.34 343.94 408.52 343.65 408.69 343.35C423.96 316.771 431.997 286.653 432 256C432.004 249.653 431.67 243.311 431 237C421.43 148.83 346.6 80 256 80C217.558 79.9784 180.174 92.5884 149.6 115.89C131.069 129.994 115.496 147.609 103.77 167.73C103.61 168.02 103.43 168.31 103.26 168.6C97.687 178.309 93.0559 188.529 89.43 199.12C85.7033 195.873 82.1067 192.65 78.64 189.45C73.25 184.45 68.47 179.82 64.22 175.45C34.65 145.19 31.13 129.84 32.06 127C34.22 124.57 50.16 120.46 90.19 130.55C97.419 121.029 105.448 112.144 114.19 103.99C95.33 98.38 78.4 94.64 64.14 92.99C33.41 89.47 13.3 95.52 4.34999 111C1.10999 116.58 -2.00001 126.09 1.62999 139.6C6.99999 159.66 26.14 184 53.23 209.5C61.86 217.63 71.29 225.87 81.35 234.14C88.67 240.14 96.35 246.2 104.25 252.22C109.523 256.22 114.907 260.22 120.4 264.22C125.893 268.22 131.46 272.147 137.1 276C162.51 293.61 189.36 310.52 215.69 325.69C225.25 331.197 234.797 336.53 244.33 341.69C253.863 346.85 263.32 351.787 272.7 356.5C294.6 367.5 316.05 377.42 336.56 385.93C345.353 389.583 353.957 392.97 362.37 396.09C374.26 400.51 385.74 404.4 396.68 407.68L397.78 408.01C423.51 415.67 445.2 419.7 462.26 420.01H464C485.64 420.01 500.3 413.63 507.58 401.01C516.67 385.39 511.66 364.69 492.72 339.51V339.51Z" fill="#5600AC"/>
</g>
<defs>
<clipPath id="clip0">
<rect width="512" height="512" fill="white"/>
</clipPath>
</defs>
</svg>
